<?xml version="1.0" encoding="UTF-8" standalone="no"?>
<!-- Created with Inkscape (http://www.inkscape.org/) -->

<svg
   version="1.1"
   id="svg1"
   width="326.87631"
   height="327.20801"
   viewBox="0 0 326.87631 327.208"
   xmlns="http://www.w3.org/2000/svg"
   xmlns:svg="http://www.w3.org/2000/svg">
  <defs
     id="defs1" />
  <g
     id="g1"
     transform="translate(-5.2663498,-2.9690724)">
    <path
       style="fill:#000000"
       d="M 141.98373,328.01183 C 37.850348,311.25735 -22.883308,200.31363 18.25416,101.99187 41.134417,47.306267 95.984194,7.7361881 154.79711,3.4861591 c 71.68782,-5.180414 130.57233,28.7399169 162.9013,93.8390449 4.37134,8.802326 5.52911,12.014006 10.81464,29.999996 4.7202,16.06224 4.8712,62.79315 0.2499,77.33334 -1.04884,3.3 -2.87242,9.76067 -4.05241,14.35705 -6.34742,24.72488 -32.23976,59.84969 -58.66889,79.58851 -34.62447,25.85959 -79.7,36.54467 -124.05792,29.40773 z m 48.93437,-22.04531 c 17.72684,-3.4088 22.47467,-4.7439 33.44913,-9.40595 74.09411,-31.47588 107.18079,-120.88679 71.26041,-192.5687 -23.52498,-46.945915 -75.09061,-79.333337 -126.31058,-79.333337 -58.62463,0 -115.223376,41.434402 -134.569261,98.514487 -5.894117,17.39061 -5.486316,18.09741 10.690385,18.52847 16.20861,0.43192 10.10833,3.991 53.20782,-31.04295 39.479986,-32.091796 41.014116,-32.990276 46.671056,-27.333336 1.82061,1.82061 2.67315,4.46453 2.68708,8.33333 0.0287,7.95322 -3.57177,5.70677 58.64626,36.591606 74.40518,36.93451 68.88695,31.07239 53.49573,56.82954 -5.77735,9.66837 -15.95362,26.87886 -22.61393,38.24553 -6.66031,11.36666 -12.59864,21.48718 -13.19629,22.49002 -2.48869,4.176 -20.84412,-2.23092 -29.46614,-10.2851 -7.98116,-7.45552 -18.87903,-7.9754 -25.24035,-1.20408 -2.92352,3.11195 -21.40808,63.44877 -21.61897,70.56806 -0.0742,2.50442 31.3734,3.2904 42.90765,1.07241 z M 154.98373,145.7283 c 3.02985,-3.50405 2.97434,-9.31607 -0.12556,-13.14427 -7.2666,-8.97388 -22.02804,2.40851 -15.39844,11.87357 4.14409,5.91653 11.02021,6.47936 15.524,1.2707 z"
       id="path62501" />
  </g>
</svg>
